# xmcd
#
# Track frame offsets:
#	150
#	14955
#	33767
#	53410
#	66912
#	78565
#	96937
#	114197
#	132432
#	154320
#	167450
#	179222
#	193417
#	215540
#
# Disc length: 3084 seconds
#
# Revision: 0
# Processed by: cddbd v1.5.1PL2 Copyright (c) Steve Scherf et al.
# Submitted via: dBpowerAMP V4.0
#
DISCID=c90c0a0e
DTITLE=Glacier Country - On High
DYEAR=1999
DGENRE=Gospel
TTITLE0=01 On the Wings of a Dove
TTITLE1=02 Amazing Grace
TTITLE2=03 Little Witness
TTITLE3=04 Song for Seth
TTITLE4=05 Thank You, Jesus
TTITLE5=06 In the Garden
TTITLE6=07 Sending Me Angels
TTITLE7=08 Sweet Communion
TTITLE8=09 Peace in the Valley
TTITLE9=10 Turn Your Radio On
TTITLE10=11 Mom
TTITLE11=12 Let Him In
TTITLE12=13 Old Rugged Cross
TTITLE13=14 I Saw the Light
EXTD=Seward, AK Country Band now defunct. Members "LaVanda K. Parks" Karin Strudy, Kim Kowalski-Rogers, Steve D. Lemme, K. Darrell Rogers (now deceased.)
EXTT0=
EXTT1=
EXTT2=
EXTT3=
EXTT4=
EXTT5=
EXTT6=
EXTT7=
EXTT8=
EXTT9=
EXTT10=
EXTT11=
EXTT12=
EXTT13=
PLAYORDER=
